<svg width="472" height="448" viewBox="24 30 472 448" fill="none" xmlns="http://www.w3.org/2000/svg">
<path d="M357.375 54.5626C361.783 58.6559 363.108 63.7562 363.371 69.6133C363.425 71.9859 363.438 74.3555 363.439 76.7286C363.517 81.1727 363.517 81.1727 365.52 85.0157C369.059 86.4203 372.498 86.3998 376.25 86.4376C382.799 86.6735 387.543 87.041 393 91.0001C396.792 95.0833 397.834 99.0376 398.152 104.473C397.855 109.399 396.098 113.068 392.459 116.419C386.248 120.723 380.32 120.78 372.938 121C356.703 121.859 341.036 124.921 329.5 137.5C325.339 142.888 323.157 148.139 324 155C325.544 159.071 327.606 162.485 330.25 165.938C332.608 170.063 332.816 173.352 332 178C330.197 181.744 328.634 183.553 325.25 185.938C317.691 188.409 310.697 184.948 303.75 182C301.996 181.269 300.241 180.539 298.484 179.813C297.718 179.489 296.952 179.165 296.163 178.832C289.266 176.179 283.037 176.506 276.141 179.027C270.063 181.789 266.881 186.132 264 192C262.663 195.825 262.926 199.701 263.008 203.695C263.025 205.232 263.042 206.768 263.059 208.305C263.089 210.707 263.125 213.109 263.171 215.512C263.442 230.208 260.385 240.601 254.189 253.807C242.49 277.681 242.49 277.681 237.839 303.477C237.829 304.548 237.82 305.619 237.81 306.723C237.806 307.869 237.801 309.015 237.797 310.195C237.791 311.38 237.785 312.564 237.78 313.784C237.77 316.284 237.764 318.784 237.76 321.284C237.75 325.118 237.719 328.951 237.688 332.785C237.681 335.214 237.676 337.642 237.672 340.07C237.653 341.795 237.653 341.795 237.634 343.555C237.639 345.152 237.639 345.152 237.644 346.782C237.64 347.719 237.636 348.657 237.633 349.623C237.819 352.047 237.819 352.047 239.335 353.803C241.921 355.662 243.912 355.386 247 355C250.571 352.528 250.894 349.127 251.812 345.063C255.799 328.977 263.88 318.359 277.418 308.93C284.201 303.86 289.776 296.857 291.534 288.442C292.104 284.232 292.154 280.118 292.176 275.875C292.199 274.099 292.223 272.323 292.248 270.547C292.283 267.769 292.313 264.991 292.326 262.213C292.341 259.516 292.382 256.821 292.426 254.125C292.424 253.3 292.422 252.475 292.42 251.625C292.533 246.295 293.463 243.224 297 239C302.406 234.918 306.221 233.548 313 234C318.874 235.823 321.503 238.166 325 243C326.157 245.314 326.153 246.748 326.211 249.324C326.239 250.189 326.268 251.053 326.297 251.943C326.348 253.753 326.393 255.563 326.43 257.373C326.655 263.708 327.334 269.048 331.75 273.938C335.046 275.494 337.4 275.442 341 275C345.891 272.014 347.532 268.248 349.438 263.063C349.758 262.231 350.079 261.399 350.409 260.542C351.626 257.369 352.815 254.185 354 251C354.55 249.523 355.1 248.045 355.65 246.568C355.943 245.781 356.237 244.994 356.539 244.183C357.774 240.871 359.014 237.561 360.255 234.251C361.174 231.786 362.082 229.317 362.988 226.848C363.568 225.289 364.149 223.73 364.73 222.172C364.986 221.467 365.241 220.763 365.503 220.037C370.776 206.02 379.806 199.853 392.25 192.188C393.338 191.508 394.426 190.828 395.547 190.127C403.391 185.259 408.658 183.072 418 184C422.05 185.296 424.593 187.529 427.375 190.75C430.594 197.188 430.363 202.044 428.375 208.727C423.382 216.983 412.51 222.058 404.528 227.187C402.729 228.345 400.939 229.516 399.148 230.688C398.088 231.372 397.028 232.057 395.935 232.762C391.85 235.877 388.659 239.024 387 244C386.5 249.098 387.361 252.565 389.441 257.106C392.445 260.756 395.88 262.694 400.502 263.361C403.318 263.509 406.117 263.561 408.938 263.563C424.29 263.635 424.29 263.635 429.523 268.381C434.312 273.894 435.46 278.083 435.316 285.242C434.713 290.503 432.416 293.621 428.625 297.313C423.172 300.818 417.935 301.292 411.586 301.309C409.93 301.331 408.275 301.354 406.619 301.378C405.762 301.387 404.904 301.396 404.021 301.406C369.363 301.823 330.785 308.235 304.312 333.063C298.858 339.087 296.301 344.45 296.68 352.672C297.318 357.312 299.018 360.07 302.375 363.25C308.466 367.31 313.761 367.352 320.875 367.313C321.901 367.308 322.926 367.303 323.983 367.298C341.647 367.027 353.101 362.55 366.51 351.366C373.144 345.87 378.436 342.242 387.348 342.621C392.936 343.419 395.925 345.622 399.438 350.125C402.173 355.607 401.794 361.468 400 367.188C395.202 373.935 388.051 378.543 381.188 383C380.399 383.517 379.61 384.034 378.797 384.566C377.236 385.587 375.674 386.606 374.11 387.621C372.319 388.792 370.544 389.987 368.773 391.188C367.879 391.786 366.984 392.384 366.062 393C365.332 393.495 364.601 393.99 363.848 394.5C354.396 399.479 346.105 400.553 335.496 400.434C334.123 400.436 332.75 400.441 331.378 400.448C326.335 400.469 321.293 400.452 316.25 400.426C311.969 400.405 307.689 400.403 303.408 400.429C301.424 400.434 299.44 400.409 297.456 400.384C289.688 400.426 283.374 401.27 277 406C272.071 411.916 270.917 417.133 270.684 424.734C270.621 426.678 270.621 426.678 270.557 428.66C270.517 430.023 270.477 431.387 270.438 432.75C270.394 434.129 270.351 435.508 270.307 436.887C270.201 440.258 270.099 443.629 270 447C271.073 447.025 272.146 447.05 273.252 447.076C293.103 447.647 312.801 451.627 332.125 456C333.167 456.225 334.21 456.449 335.283 456.68C339.626 457.716 342.338 458.385 345.652 461.465C347.469 464.882 347.486 467.185 347 471C346 473.375 346 473.375 344 475C338.377 476.052 334.16 475.934 328.52 474.672C327.833 474.523 327.147 474.374 326.44 474.221C324.981 473.904 323.524 473.582 322.068 473.255C318.246 472.399 314.414 471.594 310.582 470.785C309.83 470.626 309.078 470.466 308.303 470.302C299.254 468.399 290.194 466.982 281 466C279.606 465.848 279.606 465.848 278.183 465.692C233.017 460.982 186.263 463.795 142.285 475.301C137.639 476.29 134.366 476.79 130.188 474.375C127.492 471.448 127 469.965 127 466C128.355 462.362 129.115 460.457 132.62 458.647C133.66 458.373 134.699 458.099 135.77 457.816C136.934 457.505 138.099 457.193 139.299 456.872C145.409 455.433 151.521 454.109 157.688 452.938C158.347 452.81 159.007 452.683 159.686 452.552C173.048 449.986 186.454 448.288 200 447C199.955 442.965 199.885 438.931 199.792 434.897C199.765 433.531 199.743 432.164 199.729 430.798C199.576 416.97 197.428 404.604 188 394C180.947 387.343 171.578 382.561 162 381C161.18 380.866 160.36 380.732 159.516 380.594C141.948 378.36 128.108 385.475 113.498 394.254C112.323 394.956 112.323 394.956 111.125 395.672C110.077 396.308 110.077 396.308 109.008 396.956C103.599 399.768 97.6997 399.733 91.9375 397.938C86.129 395.535 82.9766 391.293 80.5625 385.625C79.6687 379.865 79.9888 375.198 82.4375 369.875C87.4679 364.231 93.6856 360.694 100.254 357.098C101.196 356.578 102.137 356.058 103.108 355.522C105.016 354.476 106.935 353.448 108.863 352.439C114.209 349.593 114.209 349.593 117.699 344.805C118.037 341.655 117.572 340.166 115.633 337.668C112.752 334.725 109.5 332.247 106.273 329.695C102.446 326.609 98.8869 323.248 95.3125 319.875C90.9047 315.72 86.486 311.606 81.9023 307.645C79.5036 305.571 77.1224 303.479 74.75 301.375C73.5357 300.304 73.5357 300.304 72.2969 299.211C67.6492 294.737 65.34 291.637 64.9023 285.211C65.1037 280.652 67.1294 277.947 70.125 274.688C74.6249 272.046 79.2967 271.441 84.4321 272.503C86.9035 273.264 89.3249 274.103 91.75 275C98.7507 277.859 98.7507 277.859 106 277C110.172 274.255 113.18 270.608 116.352 266.805C118 265 118 265 121 263C126.137 263.191 128.748 264.997 132.562 268.313C133.926 269.482 133.926 269.482 135.316 270.676C136.202 271.443 137.088 272.21 138 273C138.919 273.699 139.838 274.397 140.785 275.117C143 277 143 277 143.875 279.813C144 283 144 283 143.523 286.191C141.178 303.256 143.515 318.942 153.559 333.215C163.413 345.527 179.862 351.559 195 354C201.089 354.797 201.089 354.797 206.668 352.898C213.947 342.525 212.264 321.359 210.659 309.474C209.783 304.533 208.498 299.786 207 295C206.549 293.54 206.549 293.54 206.09 292.051C202.801 282.755 196.409 276.324 189.5 269.563C184.275 264.449 179.792 259.295 176 253C175.569 252.303 175.139 251.605 174.695 250.887C171.983 246.07 171.126 242.506 172 237C174.381 233.134 176.652 230.449 181 229C186.221 228.172 190.145 228.655 194.688 231.438C198.722 234.383 201.167 237.727 203.613 242.047C205.227 244.32 206.382 245.089 209 246C212.553 245.688 215.618 245.127 219 244C219.717 242.693 220.375 241.354 221 240C222.131 238.447 223.278 236.906 224.438 235.375C230.407 226.869 232.129 218.315 231 208C228.509 195.603 222.979 185.325 212.754 177.723C203.168 171.727 193.249 169.122 182 170C178.462 170.817 175.116 172.017 171.715 173.281C170.774 173.614 169.833 173.947 168.863 174.29C165.882 175.345 162.909 176.42 159.938 177.5C156.015 178.923 152.086 180.326 148.152 181.719C147.268 182.047 146.383 182.375 145.472 182.713C138.775 185.085 132.679 186.226 125.812 183.938C121.812 181.182 117.876 177.727 116.352 172.981C115.318 167.159 116.069 163.083 118.637 157.895C122.545 152.463 127.614 150.856 133.75 149.063C134.578 148.81 135.406 148.556 136.26 148.296C140.467 147.018 144.689 145.8 148.922 144.609C150.079 144.281 150.079 144.281 151.259 143.945C152.721 143.532 154.187 143.129 155.655 142.737C158.288 141.999 160.675 141.193 163.031 139.793C164.656 136.786 163.666 134.271 163 131C161.875 128.394 160.72 125.95 159.402 123.449C158.676 122.014 157.95 120.578 157.225 119.143C156.084 116.914 154.938 114.689 153.781 112.469C145.342 96.2054 145.342 96.2054 147 88.0001C148.927 82.3255 152.641 78.6795 158 76.0001C164.02 75.4429 170.367 74.9019 175.504 78.5235C180.724 83.675 183.45 90.9005 186.629 97.3943C192.225 108.897 192.225 108.897 200 119C201.176 120.268 201.176 120.268 202.375 121.563C203.241 122.367 204.108 123.171 205 124C205.588 124.57 206.176 125.14 206.781 125.727C215.881 134.249 226.623 140.639 237.25 147.063C238.198 147.636 238.198 147.636 239.165 148.221C245.82 152.183 251.34 152.737 259 152C261.325 151.188 263.273 150.236 265.379 148.973C267 148 267 148 270 147C271.009 145.234 271.009 145.234 272 143C272.681 142.01 273.361 141.02 274.062 140C277.474 134.718 277.795 129.173 277 123C274.941 117.309 271.906 112.603 268 108C266.409 103.226 266.201 98.8499 268.188 94.2501C271.477 90.1669 274.139 87.8907 279.375 87.0626C284.829 86.711 288.706 88.1071 292.965 91.6212C294.326 92.8361 295.682 94.0575 297.031 95.2852C302.001 99.6143 307.302 102.309 314 102C321.186 100.543 327.953 96.07 332 90.0001C332.304 87.2069 332.304 87.2069 332.273 84.0469C332.294 82.87 332.315 81.6931 332.336 80.4805C332.362 78.0092 332.38 75.5379 332.391 73.0665C332.525 66.2165 332.707 61.479 337 56.0001C343.183 50.598 350.341 51.3061 357.375 54.5626Z" fill="#C08081"/>
<path d="M68.8789 176.449C74.1393 180.295 78.5673 185.512 80 192C80.9689 201.234 80.0784 208.425 74.5625 215.965C69.5883 221.621 63.1914 224.177 55.832 225.344C48.5266 225.694 41.2752 222.96 35.5664 218.496C29.6846 212.878 27.4459 206.014 27 198C27.6002 190.295 30.6198 183.945 36.3125 178.75C45.8747 171.237 58.194 170.221 68.8789 176.449Z" fill="#C08081"/>
<path d="M461 39C466.077 43.2689 468.741 47.2796 469.375 53.9375C469.138 58.9201 467.868 63.0802 464.313 66.7344C458.544 71.7822 454.922 72.3493 447.207 72.2812C441.806 71.8076 439.34 69.4143 435.75 65.625C432.303 60.455 431.592 56.2289 432.457 50.1758C433.695 45.2143 437.116 41.1988 441 38C448.151 34.8217 454.158 35.3257 461 39Z" fill="#C08081"/>
<path d="M225.094 38.5507C227 38.9999 227 38.9999 229.5 41.1249C231.247 44.4731 231.555 46.2757 231 49.9999C230 52.3124 230 52.3124 228 53.9999C225.267 54.97 222.888 55.3201 220 54.9999C217 52.9999 217 52.9999 215 49.9999C214.375 46.0421 214.39 43.9913 216.5 40.5624C219.532 38.6675 221.561 38.3595 225.094 38.5507Z" fill="#C08081"/>
<path d="M472 160C474.5 161.5 474.5 161.5 476 164C476.604 166.811 476.653 169.195 476 172C473.937 174.563 473.937 174.563 471 176C466.735 176.075 464.762 175.649 461.5 172.875C459.522 169.084 459.869 167.072 461 163C463.285 158.833 467.77 159.26 472 160Z" fill="#C08081"/>
<path d="M89.0004 37.0001C91.6481 38.6769 91.9552 39.8515 92.8754 42.8751C93.0245 46.6014 92.2518 48.0817 90.0004 51.0001C86.9087 52.546 84.4061 52.2937 81.0004 52.0001C78.5629 50.5001 78.5629 50.5001 77.0004 48.0001C76.3903 45.1911 76.3468 42.8037 77.0004 40.0001C80.6348 35.4846 83.5952 35.4986 89.0004 37.0001Z" fill="#C08081"/>
</svg>
